<?xml version="1.0" standalone="no"?>
<!DOCTYPE svg PUBLIC "-//W3C//DTD SVG 20010904//EN"
 "http://www.w3.org/TR/2001/REC-SVG-20010904/DTD/svg10.dtd">
<svg version="1.0" xmlns="http://www.w3.org/2000/svg"
 width="128.000000pt" height="128.000000pt" viewBox="0 0 128.000000 128.000000"
 preserveAspectRatio="xMidYMid meet">
<metadata>
Created by potrace 1.11, written by Peter Selinger 2001-2013
</metadata>
<g transform="translate(0.000000,128.000000) scale(0.100000,-0.100000)"
fill="#000000" stroke="none">
<path d="M480 1228 c-1 -29 0 -137 0 -241 l1 -187 -53 -57 c-29 -32 -74 -80
-100 -108 -25 -27 -55 -60 -66 -72 -11 -13 -62 -68 -113 -124 -52 -55 -97
-108 -101 -117 -5 -10 8 -80 30 -167 l38 -150 524 0 524 0 38 150 c20 83 35
157 33 165 -3 8 -24 35 -48 60 -23 25 -99 108 -167 185 -69 77 -129 143 -134
147 -5 3 -30 -19 -55 -50 -25 -32 -48 -59 -51 -62 -3 -3 -26 -30 -52 -61 l-48
-57 81 -81 82 -81 -222 0 c-121 0 -221 2 -221 5 0 3 9 15 19 27 11 13 29 34
41 48 12 14 40 47 63 75 23 27 69 81 103 120 33 38 85 100 116 137 l56 66 0
241 0 241 -159 0 -159 0 0 -52z"/>
</g>
</svg>
